<svg width="32" height="32" viewBox="0 0 32 32" fill="none" xmlns="http://www.w3.org/2000/svg">
<path d="M17.6227 25.6909C17.6514 22.7537 16.9068 20.3653 15.9596 20.356C15.0123 20.3468 14.2211 22.7203 14.1925 25.6574C14.1637 28.5945 14.9084 30.9831 15.8556 30.9923C16.8028 31.0016 17.594 28.628 17.6227 25.6909Z" fill="white"/>
<path d="M12.1275 25.0236C13.7397 22.5683 14.4047 20.1564 13.6129 19.6365C12.8211 19.1166 10.8722 20.6855 9.26004 23.1408C7.64782 25.5961 6.98279 28.0079 7.7746 28.5279C8.56647 29.0478 10.5153 27.4789 12.1275 25.0236Z" fill="white"/>
<path d="M7.86121 21.501C10.545 20.3072 12.4085 18.6379 12.0234 17.7723C11.6385 16.9068 9.15081 17.1729 6.46703 18.3667C3.78328 19.5604 1.91978 21.2298 2.30477 22.0953C2.68975 22.9609 5.17746 22.6948 7.86121 21.501Z" fill="white"/>
<path d="M11.7002 15.3448C11.8443 14.4085 9.60769 13.2873 6.70465 12.8405C3.80153 12.3936 1.3313 12.7904 1.18719 13.7267C1.04309 14.6629 3.27969 15.7841 6.18278 16.2309C9.08583 16.6778 11.5561 16.281 11.7002 15.3448Z" fill="white"/>
<path d="M12.7428 13.1142C13.3702 12.4044 12.0945 10.2522 9.89363 8.30701C7.69273 6.36187 5.40001 5.36043 4.77269 6.07023C4.14538 6.78004 5.42103 8.93229 7.62195 10.8774C9.82285 12.8226 12.1156 13.824 12.7428 13.1142Z" fill="white"/>
<path d="M14.819 11.8118C15.7305 11.5538 15.8211 9.05356 15.0213 6.22728C14.2216 3.40098 12.8343 1.31891 11.9229 1.57683C11.0114 1.83476 10.9208 4.33501 11.7205 7.16133C12.5203 9.98757 13.9076 12.0697 14.819 11.8118Z" fill="white"/>
<path d="M20.4533 7.24686C21.3086 4.43687 21.2674 1.93532 20.3612 1.65947C19.4549 1.38362 18.0269 3.43793 17.1715 6.24791C16.3162 9.05786 16.3575 11.5594 17.2637 11.8353C18.1699 12.1111 19.598 10.0568 20.4533 7.24686Z" fill="white"/>
<path d="M24.4824 11.042C26.7209 9.14022 28.0384 7.01331 27.425 6.29141C26.8117 5.56949 24.4998 6.52595 22.2614 8.42765C20.0228 10.3294 18.7054 12.4563 19.3187 13.1782C19.932 13.9002 22.2439 12.9437 24.4824 11.042Z" fill="white"/>
<path d="M25.8147 16.4173C28.726 16.0278 30.9843 14.9509 30.8586 14.012C30.7331 13.0731 28.2711 12.6277 25.3598 13.0171C22.4485 13.4067 20.1902 14.4835 20.3158 15.4225C20.4414 16.3613 22.9033 16.8068 25.8147 16.4173Z" fill="white"/>
<path d="M29.5675 22.3636C29.9695 21.5059 28.1392 19.8001 25.4795 18.5536C22.8199 17.3072 20.3379 16.9921 19.9359 17.8498C19.5339 18.7076 21.3641 20.4134 24.0239 21.6599C26.6835 22.9063 29.1655 23.2214 29.5675 22.3636Z" fill="white"/>
<path d="M23.976 28.6899C24.778 28.1857 24.1606 25.7611 22.5972 23.2746C21.0337 20.788 19.1161 19.181 18.3142 19.6852C17.5123 20.1894 18.1296 22.6139 19.6931 25.1005C21.2566 27.5871 23.1741 29.1942 23.976 28.6899Z" fill="white"/>
</svg>
